HIERARCHY
ROOT hip
{
	OFFSET 0.000000 0.000000 0.000000 
	CHANNELS 6 Xposition Yposition Zposition Xrotation Zrotation Yrotation
	JOINT abdomen
	{
		OFFSET 0.000000 3.402643 0.000000 
		CHANNELS 3 Xrotation Zrotation Yrotation
		JOINT chest
		{
			OFFSET 0.000000 8.438565 -0.680529 
			CHANNELS 3 Xrotation Zrotation Yrotation
			JOINT neck
			{
				OFFSET 0.000000 10.207942 -0.272212 
				CHANNELS 3 Xrotation Zrotation Yrotation
				JOINT head
				{
					OFFSET 0.000000 3.130431 0.000000 
					CHANNELS 3 Xrotation Zrotation Yrotation
					End Site
					{
						OFFSET 0.000000 3.130435 0.000000 
					}
				}
			}
			JOINT lCollar
			{
				OFFSET 3.470700 6.669187 -0.816635 
				CHANNELS 3 Yrotation Zrotation Xrotation
				JOINT lShldr
				{
					OFFSET 3.198488 0.000000 0.000000 
					CHANNELS 3 Zrotation Yrotation Xrotation
					JOINT lForeArm
					{
						OFFSET 10.139888 0.000000 0.000000 
						CHANNELS 3 Yrotation Zrotation Xrotation
						JOINT lHand
						{
							OFFSET 8.370511 0.000000 0.000000 
							CHANNELS 3 Zrotation Yrotation Xrotation
							End Site
							{
								OFFSET 4.083176 0.000000 0.000000 
							}
						}
					}
				}
			}
			JOINT rCollar
			{
				OFFSET -3.470700 6.669187 -0.816635 
				CHANNELS 3 Yrotation Zrotation Xrotation
				JOINT rShldr
				{
					OFFSET -3.198488 0.000000 0.000000 
					CHANNELS 3 Zrotation Yrotation Xrotation
					JOINT rForeArm
					{
						OFFSET -10.139888 0.000000 0.000000 
						CHANNELS 3 Yrotation Zrotation Xrotation
						JOINT rHand
						{
							OFFSET -8.370511 0.000000 0.000000 
							CHANNELS 3 Zrotation Yrotation Xrotation
							End Site
							{
								OFFSET -4.083176 0.000000 0.000000 
							}
						}
					}
				}
			}
		}
	}
	JOINT lThigh
	{
		OFFSET 5.308129 -1.633274 1.361059 
		CHANNELS 3 Xrotation Zrotation Yrotation
		JOINT lShin
		{
			OFFSET -2.041588 -20.007561 0.000000 
			CHANNELS 3 Xrotation Zrotation Yrotation
			JOINT lFoot
			{
				OFFSET 0.000000 -19.190928 -1.224953 
				CHANNELS 3 Xrotation Yrotation Zrotation
				End Site
				{
					OFFSET 0.000000 -2.449906 4.627600 
				}
			}
		}
	}
	JOINT rThigh
	{
		OFFSET -5.308129 -1.633274 1.361059 
		CHANNELS 3 Xrotation Zrotation Yrotation
		JOINT rShin
		{
			OFFSET 2.041588 -20.007561 0.000000 
			CHANNELS 3 Xrotation Zrotation Yrotation
			JOINT rFoot
			{
				OFFSET 0.000000 -19.190928 -1.224953 
				CHANNELS 3 Xrotation Yrotation Zrotation
				End Site
				{
					OFFSET 0.000000 -2.449906 4.627600 
				}
			}
		}
	}
}
MOTION
Frames: 11
Frame Time: 0.033333
-79.457047 52.285851 53.560410 -11.796875 -10.351563 -41.476364 36.442032 -5.979819 -5.085443 -17.929689 10.078125 0.214844 51.063168 8.107644 2.471410 -38.115238 -0.195313 -20.156248 2.000000 -2.000000 0.000000 -72.900391 6.591797 -12.646485 -42.661453 -1.853253 -1.804966 13.884850 39.560734 15.546895 -2.000000 2.000000 0.000000 71.660149 0.556641 -24.111330 96.551537 -0.723031 -3.089532 -1.530344 -45.612766 -35.244228 16.138834 -0.780443 -0.655102 20.255688 -5.639998 -1.706929 -6.748982 4.402377 7.161000 -0.833467 -18.304445 -33.590427 26.386093 4.113734 2.213459 1.124993 -13.384315 -7.030543 
-80.647682 52.230709 54.101498 -11.435547 -10.175780 -41.573994 36.127434 -6.034936 -5.356275 -17.744143 10.234375 0.283203 51.063168 8.107644 2.471410 -38.085941 0.136719 -20.244143 2.000000 -2.000000 0.000000 -73.388672 5.371094 -11.386720 -42.837231 -1.853253 -1.804966 13.728352 39.900414 15.592724 -2.000000 2.000000 0.000000 71.855469 0.400391 -23.906273 96.547440 -0.702244 -2.941658 -1.622914 -44.968300 -35.091885 17.252411 0.059062 -0.525086 20.799593 -5.550075 -1.934589 -6.921677 4.257839 6.690449 -1.556894 -16.182838 -34.460190 20.577921 4.348165 1.817627 1.086341 -11.650645 -7.688434 
-81.862129 52.191311 54.613091 -10.917969 -10.371094 -41.456837 35.794640 -6.302355 -5.561799 -17.734377 10.410156 0.322266 51.063168 8.107644 2.471410 -38.046879 0.654297 -20.322266 2.000000 -2.000000 0.000000 -73.925781 4.316407 -10.438716 -42.837231 -1.853253 -1.804966 13.120971 40.087574 15.765886 -2.000000 2.000000 0.000000 71.875000 0.166016 -23.564434 96.727318 -0.723031 -3.089532 -0.944221 -45.075459 -35.484158 18.163670 1.288949 -0.634113 21.363201 -5.472385 -2.010605 -7.156048 3.693031 6.545741 -1.233927 -13.294579 -34.922413 13.712159 4.610748 1.119464 3.866113 -9.677787 -8.010800 
-83.097069 52.136162 55.100143 -10.390624 -10.732421 -41.310413 35.670784 -6.508368 -5.930830 -17.548828 10.576172 0.402183 51.063168 8.107644 2.471410 -37.812500 1.152344 -20.371094 2.000000 -2.000000 0.000000 -74.374992 3.798828 -9.921227 -42.837231 -1.853253 -1.804966 13.049482 40.379650 16.022753 -2.000000 2.000000 0.000000 71.494141 0.361328 -23.037107 96.903084 -0.742530 -3.090660 0.426251 -46.668278 -36.527534 19.401808 2.666149 -0.367738 21.836193 -5.411776 -2.197845 -6.768540 3.137824 6.148135 -0.577452 -10.154702 -34.893932 6.487899 5.146871 0.728055 7.488116 -7.972773 -8.740634 
-84.349121 52.073147 55.566956 -9.853516 -10.917968 -41.191406 35.355053 -6.554457 -6.198208 -17.539064 10.742188 0.439453 51.063168 8.107644 2.471410 -37.587891 1.816406 -20.195007 2.000000 -2.000000 0.000000 -75.244141 3.642578 -9.931641 -42.485409 -1.852683 -1.795221 12.775311 40.620277 15.406494 -2.000000 2.000000 0.000000 70.927734 0.458984 -22.324141 97.078857 -0.752279 -3.091224 2.355104 -48.811932 -38.565815 20.235405 4.060490 -0.934530 22.565355 -5.410162 -2.124864 -5.983243 3.190550 5.419600 0.126606 -7.724796 -34.651703 2.764495 5.200905 0.400531 8.750127 -6.431387 -9.117435 
-85.615189 52.025875 56.018135 -9.326172 -11.279297 -41.251904 35.029606 -6.604000 -6.456434 -17.529297 10.917969 0.294818 51.063168 8.107644 2.471410 -37.353519 2.304688 -19.882814 2.000000 -2.000000 0.000000 -76.181641 3.798828 -10.283203 -42.133564 -1.861862 -1.784905 12.701848 40.590038 14.970385 -2.000000 2.000000 0.000000 71.074219 0.703125 -21.562502 97.230560 -0.946540 -2.946010 4.294678 -50.539894 -40.229176 20.794910 4.940073 -1.075437 23.599192 -4.847749 -2.255244 -5.311296 3.416687 5.029325 0.104388 -7.260157 -34.094276 5.756961 5.177482 0.171108 8.285201 -7.026381 -8.715973 
-86.891891 52.112534 56.458435 -8.642578 -11.650392 -41.162109 34.368397 -6.432279 -6.775409 -17.333986 11.083984 0.371094 51.063168 8.107644 2.471410 -36.787113 2.773437 -19.042971 2.000000 -2.000000 0.000000 -77.187500 4.531250 -10.742188 -41.429615 -1.879650 -1.754529 13.030508 40.398937 14.988441 -2.000000 2.000000 0.000000 71.289063 0.166016 -20.458986 97.430405 -0.762028 -3.091788 5.344332 -50.556385 -40.987389 20.957371 6.513234 -0.734574 25.359112 -4.717317 -2.549854 -2.137893 3.179123 5.815400 0.816378 -6.165874 -34.434540 6.824040 5.159853 0.746362 8.353996 -7.258739 -8.465014 
-88.175896 52.199196 56.892502 -7.939453 -12.216798 -41.222771 33.736740 -6.065051 -7.394181 -17.324221 11.435547 0.087891 51.063168 8.107644 2.471410 -35.908207 2.685547 -18.291016 2.000000 -2.000000 0.000000 -78.369141 6.484375 -11.278192 -40.549629 -1.896869 -1.714406 13.615328 40.367687 15.489950 -2.000000 2.000000 0.000000 72.285156 -0.888672 -19.208984 97.440025 -0.587104 -3.071892 5.799416 -49.924870 -40.722885 20.349089 7.879243 -0.099942 27.829050 -4.589883 -2.734983 3.063520 3.427538 6.693079 2.049578 -4.940191 -34.068851 7.347592 5.137566 0.779440 8.343129 -7.640185 -8.011903 
-89.464058 52.207073 57.324703 -7.412109 -12.558595 -41.300957 33.249527 -5.887825 -7.700817 -17.304688 11.601563 0.128917 51.063168 8.107644 2.471410 -35.351563 2.978516 -17.832033 2.000000 -2.000000 0.000000 -79.208984 8.408203 -12.128907 -39.333309 -2.100504 -1.516339 14.542842 40.361298 16.256414 -2.000000 2.000000 0.000000 73.056641 -1.513672 -18.203127 97.430695 -0.751715 -3.100970 6.016756 -49.447968 -40.255638 20.083864 9.275218 -0.016399 28.354839 -4.560238 -2.577101 9.455898 3.805640 7.792093 3.256362 -3.609015 -33.823029 7.535160 5.158846 0.786080 8.411358 -7.903182 -7.790025 
-90.752930 52.065262 57.759678 -6.875000 -12.929688 -41.406254 33.067795 -6.123981 -7.655741 -17.294924 11.777345 0.156250 51.063168 8.107644 2.471410 -35.244141 3.994141 -17.753906 2.000000 -2.000000 0.000000 -79.619141 9.960938 -12.410419 -38.629944 -2.207743 -1.510048 15.049881 40.124676 16.699762 -2.000000 2.000000 0.000000 74.189453 -2.089844 -18.633167 97.430695 -0.751715 -3.100970 5.404290 -49.150471 -39.770325 22.684015 10.888138 1.394818 26.054060 -4.758800 -2.421474 11.329660 5.783519 12.188364 4.724255 -2.323070 -33.418552 7.356853 5.175047 0.323915 8.544565 -7.628120 -7.200920 
-92.039238 51.836803 58.202179 -6.347656 -13.281250 -41.496380 33.209248 -6.831091 -7.466331 -17.304688 11.601563 0.304698 51.063168 8.107644 2.471410 -36.289066 5.820313 -18.593750 2.000000 -2.000000 0.000000 -79.697266 11.699219 -12.429660 -38.805984 -2.208313 -1.519794 14.851321 40.268192 16.708530 -2.000000 2.000000 0.000000 75.312500 -2.431641 -19.795202 97.430695 -0.751715 -3.100970 4.564986 -48.754326 -39.211212 25.044373 11.814805 2.340777 23.068987 -4.914516 -2.165477 13.553100 9.497575 16.815332 5.151362 -1.424376 -33.857414 8.258660 5.286464 0.892009 9.174957 -7.787311 -6.574269 
